<?xml version="1.0" encoding="utf-8"?>
<!-- Generator: Adobe Illustrator 14.0.0, SVG Export Plug-In . SVG Version: 6.00 Build 43363)  -->
<!DOCTYPE svg PUBLIC "-//W3C//DTD SVG 1.1//EN" "http://www.w3.org/Graphics/SVG/1.1/DTD/svg11.dtd">
<svg version="1.1" id="Layer_1" xmlns="http://www.w3.org/2000/svg" xmlns:xlink="http://www.w3.org/1999/xlink" x="0px" y="0px"
	 width="306.465px" height="31.441px" viewBox="0 0 306.465 31.441" enable-background="new 0 0 306.465 31.441"
	 xml:space="preserve">
<g>
	<g>
		<path fill="#231F20" d="M0,1.327C0,0.896,0.387,0.51,0.817,0.51h2.838c0.473,0,0.816,0.387,0.816,0.817v11.996H20.21V1.327
			c0-0.431,0.344-0.817,0.816-0.817h2.838c0.431,0,0.817,0.387,0.817,0.817v28.464c0,0.432-0.387,0.818-0.817,0.818h-2.838
			c-0.473,0-0.816-0.387-0.816-0.818V17.365H4.472v12.426c0,0.432-0.344,0.818-0.816,0.818H0.817C0.387,30.609,0,30.223,0,29.791
			V1.327z"/>
		<path fill="#231F20" d="M46.268,0.08c8.6,0,15.479,6.923,15.479,15.522s-6.88,15.437-15.479,15.437
			c-8.601,0-15.438-6.838-15.438-15.437C30.83,7.002,37.667,0.08,46.268,0.08z M46.268,26.738c6.148,0,11.18-4.986,11.18-11.136
			c0-6.105-5.031-11.223-11.18-11.223c-6.106,0-11.137,5.117-11.137,11.223C35.131,21.752,40.161,26.738,46.268,26.738z"/>
		<path fill="#231F20" d="M67.896,1.327c0-0.431,0.344-0.817,0.817-0.817h9.804c5.289,0,9.632,4.3,9.632,9.503
			c0,5.332-4.343,9.675-9.589,9.675h-6.235v10.104c0,0.433-0.387,0.817-0.816,0.817h-2.795c-0.474,0-0.817-0.387-0.817-0.817
			L67.896,1.327L67.896,1.327z M78.26,15.473c2.967,0,5.461-2.408,5.461-5.504c0-2.924-2.494-5.16-5.461-5.16h-5.935v10.664H78.26z"
			/>
		<path fill="#231F20" d="M93.438,1.327c0-0.431,0.344-0.817,0.817-0.817h9.804c5.289,0,9.632,4.3,9.632,9.503
			c0,5.332-4.343,9.675-9.589,9.675h-6.235v10.104c0,0.433-0.387,0.817-0.816,0.817h-2.795c-0.474,0-0.817-0.387-0.817-0.817
			L93.438,1.327L93.438,1.327z M103.801,15.473c2.967,0,5.461-2.408,5.461-5.504c0-2.924-2.494-5.16-5.461-5.16h-5.935v10.664
			H103.801z"/>
		<path fill="#231F20" d="M118.979,1.327c0-0.431,0.344-0.817,0.817-0.817h17.199c0.473,0,0.817,0.387,0.817,0.817v2.407
			c0,0.431-0.345,0.817-0.817,0.817h-13.588v8.771h11.481c0.43,0,0.816,0.388,0.816,0.817v2.409c0,0.474-0.387,0.816-0.816,0.816
			h-11.481v9.243h13.588c0.473,0,0.817,0.388,0.817,0.818v2.363c0,0.432-0.345,0.818-0.817,0.818h-17.199
			c-0.474,0-0.817-0.388-0.817-0.818V1.327z"/>
		<path fill="#231F20" d="M144.307,1.327c0-0.431,0.344-0.817,0.817-0.817h11.694c5.16,0,9.375,4.085,9.375,9.202
			c0,3.956-2.623,7.224-6.364,8.728l5.892,10.923c0.301,0.559,0,1.247-0.73,1.247h-3.354c-0.345,0-0.603-0.215-0.688-0.387
			l-5.72-11.396h-6.493v10.965c0,0.433-0.387,0.817-0.816,0.817h-2.795c-0.474,0-0.817-0.387-0.817-0.817L144.307,1.327
			L144.307,1.327z M156.477,15.129c2.795,0,5.246-2.365,5.246-5.332c0-2.795-2.451-5.117-5.246-5.117h-7.654v10.449H156.477z"/>
		<path fill="#231F20" d="M176.168,0.724c0.086-0.344,0.432-0.645,0.773-0.645h0.688c0.259,0,0.646,0.215,0.731,0.473l8.986,21.974
			h0.172l8.943-21.974c0.086-0.258,0.43-0.473,0.73-0.473h0.688c0.345,0,0.688,0.301,0.774,0.645l5.289,28.895
			c0.129,0.604-0.174,0.99-0.774,0.99h-2.795c-0.387,0-0.731-0.301-0.817-0.603l-3.182-19.221c-0.043,0-0.129,0-0.129,0l-7.74,19.78
			c-0.086,0.258-0.344,0.473-0.73,0.473h-0.773c-0.344,0-0.645-0.215-0.73-0.473l-7.782-19.78c-0.043,0-0.13,0-0.173,0
			l-3.096,19.221c-0.043,0.302-0.431,0.603-0.773,0.603h-2.795c-0.603,0-0.903-0.387-0.816-0.99L176.168,0.724z"/>
		<path fill="#231F20" d="M206.227,29.49l13.2-28.938c0.13-0.258,0.517-0.473,0.73-0.473h0.431c0.215,0,0.602,0.215,0.73,0.473
			l13.115,28.938c0.258,0.561-0.086,1.119-0.731,1.119h-2.709c-0.517,0-0.816-0.258-0.989-0.646l-2.666-5.893h-14.061
			c-0.859,1.979-1.764,3.913-2.623,5.893c-0.129,0.302-0.473,0.646-0.988,0.646h-2.709C206.312,30.609,205.968,30.051,206.227,29.49
			z M225.704,20.375l-5.289-11.782H220.2l-5.246,11.782H225.704z"/>
		<path fill="#231F20" d="M251.848,0.08c4.129,0,7.524,1.505,10.448,3.999c0.345,0.344,0.388,0.859,0.043,1.204
			c-0.646,0.688-1.29,1.333-1.935,2.021c-0.344,0.387-0.688,0.344-1.118-0.043c-2.021-1.763-4.687-2.924-7.31-2.924
			c-6.106,0-10.793,5.16-10.793,11.18c0,5.976,4.687,11.135,10.793,11.135c3.567,0,6.02-1.288,6.448-1.461v-4.815h-4.214
			c-0.473,0-0.816-0.344-0.816-0.772v-2.494c0-0.474,0.345-0.816,0.816-0.816h7.826c0.43,0,0.773,0.387,0.773,0.816
			c0,3.438,0.043,6.965,0.043,10.406c0,0.215-0.172,0.559-0.345,0.688c0,0-4.429,2.838-10.663,2.838
			c-8.558,0-15.479-6.838-15.479-15.437C236.367,7.002,243.29,0.08,251.848,0.08z"/>
		<path fill="#231F20" d="M269.605,1.327c0-0.431,0.388-0.817,0.817-0.817h2.838c0.431,0,0.816,0.387,0.816,0.817v28.464
			c0,0.432-0.388,0.818-0.816,0.818h-2.838c-0.431,0-0.817-0.387-0.817-0.818V1.327z"/>
		<path fill="#231F20" d="M295.75,0.08c4.343,0,7.48,1.462,10.405,3.999c0.388,0.344,0.388,0.859,0.043,1.204l-1.893,1.935
			c-0.301,0.387-0.688,0.387-1.075,0c-2.021-1.763-4.771-2.881-7.438-2.881c-6.148,0-10.793,5.16-10.793,11.18
			c0,6.019,4.688,11.135,10.836,11.135c3.139,0,5.332-1.245,7.396-2.838c0.387-0.301,0.773-0.258,1.031-0.043l1.979,1.937
			c0.345,0.301,0.259,0.858-0.043,1.16c-2.924,2.838-6.621,4.172-10.448,4.172c-8.601,0-15.522-6.838-15.522-15.437
			C280.227,7.002,287.148,0.08,295.75,0.08z"/>
		
			<text transform="matrix(1 0 0 1 7.1079 13.5215)" opacity="0" enable-background="new    " font-family="'MyriadPro-Regular'" font-size="12">a</text>
	</g>
</g>
</svg>
