<?xml version="1.0" encoding="utf-8"?>
<!-- Generator: Adobe Illustrator 14.0.0, SVG Export Plug-In . SVG Version: 6.00 Build 43363)  -->
<!DOCTYPE svg PUBLIC "-//W3C//DTD SVG 1.1//EN" "http://www.w3.org/Graphics/SVG/1.1/DTD/svg11.dtd">
<svg version="1.1" id="Layer_1" xmlns="http://www.w3.org/2000/svg" xmlns:xlink="http://www.w3.org/1999/xlink" x="0px" y="0px"
	 width="110px" height="30px" viewBox="0 0 110 30" enable-background="new 0 0 110 30" xml:space="preserve">
<g>
	<path fill="#aaaaaa" d="M30,26.838C30,28.58,28.582,30,26.84,30H3.161C1.412,30,0,28.58,0,26.838V3.156C0,1.409,1.412,0,3.161,0
		H26.84C28.582,0,30,1.409,30,3.156V26.838z"/>
	<path fill="#FFFFFF" d="M15.79,3.406c-6.597,0-9.927,4.732-9.927,8.676c0,2.391,0.905,4.515,2.847,5.308
		c0.317,0.13,0.603,0.002,0.696-0.35c0.062-0.243,0.213-0.856,0.28-1.113c0.095-0.347,0.06-0.471-0.197-0.776
		c-0.562-0.658-0.918-1.512-0.918-2.721c0-3.51,2.624-6.652,6.838-6.652c3.732,0,5.78,2.28,5.78,5.324
		c0,4.004-1.773,7.385-4.404,7.385c-1.45,0-2.537-1.202-2.194-2.677c0.418-1.76,1.229-3.661,1.229-4.929
		c0-1.138-0.61-2.086-1.873-2.086c-1.487,0-2.678,1.539-2.678,3.596c0,1.31,0.442,2.197,0.442,2.197s-1.52,6.441-1.788,7.568
		c-0.246,1.051-0.28,2.211-0.24,3.178H9.677l0.303,2.328l1.334-1.721l0.007,0.003c0.529-0.836,1.104-1.904,1.4-2.976
		c0.17-0.617,0.976-3.819,0.976-3.819c0.482,0.921,1.894,1.731,3.394,1.731c4.463,0,7.492-4.07,7.492-9.518
		C24.582,7.246,21.093,3.406,15.79,3.406z"/>
</g>
<g>
	<path fill="#aaaaaa" d="M70,26.839C70,28.579,68.58,30,66.841,30H43.16C41.413,30,40,28.579,40,26.839V3.155
		C40,1.411,41.413,0,43.16,0h23.681C68.58,0,70,1.411,70,3.155V26.839z"/>
	<path fill="#FFFFFF" d="M65.474,9.68c-0.754,0.331-1.567,0.561-2.419,0.66c0.869-0.522,1.538-1.345,1.853-2.327
		c-0.812,0.48-1.717,0.831-2.674,1.02c-0.77-0.82-1.862-1.33-3.075-1.33c-2.324,0-4.211,1.885-4.211,4.211
		c0,0.33,0.038,0.652,0.111,0.961c-3.502-0.176-6.604-1.852-8.683-4.4c-0.361,0.622-0.569,1.344-0.569,2.116
		c0,1.46,0.742,2.751,1.873,3.505c-0.688-0.021-1.34-0.211-1.906-0.523c0,0.016,0,0.031,0,0.053c0,2.039,1.451,3.74,3.378,4.127
		c-0.354,0.096-0.728,0.148-1.109,0.148c-0.272,0-0.537-0.026-0.793-0.076c0.534,1.672,2.091,2.891,3.934,2.924
		c-1.44,1.131-3.256,1.803-5.229,1.803c-0.341,0-0.676-0.02-1.005-0.059c1.862,1.195,4.078,1.893,6.453,1.893
		c7.748,0,11.984-6.418,11.984-11.982c0-0.18-0.006-0.363-0.014-0.543C64.196,11.264,64.909,10.521,65.474,9.68z"/>
</g>
<path fill="#aaaaaa" d="M110,26.838c0,1.742-1.417,3.162-3.158,3.162H83.16C81.414,30,80,28.58,80,26.838V3.156
	C80,1.41,81.414,0,83.16,0h23.682C108.583,0,110,1.41,110,3.156V26.838z"/>
<path fill="#bebebe" d="M81.581,21.209v5.629c0,0.863,0.703,1.577,1.579,1.577h23.682c0.867,0,1.574-0.714,1.574-1.577v-5.629
	H81.581z"/>
<path fill="#FFFFFF" d="M93.965,28.385V16.279h-2.382v-3.361h2.448c0,0,0-1.895,0-3.179c0-1.773,1.45-4.497,4.141-4.681
	c2.689-0.185,4.597,0.402,4.597,0.402l-0.488,3.545c0,0-3.79-0.918-3.79,1.102c0,2.016,0,2.748,0,2.748h3.73l-0.306,3.424H98.49
	v12.105H93.965z"/>
</svg>
